<svg xmlns="http://www.w3.org/2000/svg" viewBox="0 0 447.514 447.514" style="enable-background:new 0 0 447.514 447.514" xml:space="preserve"><path d="M389.183 10.118a12.115 12.115 0 0 0-11.718-.634l-50.653 24.559a126.69 126.69 0 0 1-113.377-1.418c-38.094-19.662-83.542-18.72-120.789 2.487V20c0-11.046-8.954-20-20-20s-20 8.954-20 20v407.514c0 11.046 8.954 20 20 20s20-8.954 20-20V220.861a126.69 126.69 0 0 1 120.789-2.487 126.69 126.69 0 0 0 113.377 1.418l56.059-27.18a21.278 21.278 0 0 0 11.995-19.146V20.385c0-4.173-2.147-8.052-5.683-10.267z"/></svg>