<svg xmlns="http://www.w3.org/2000/svg" viewBox="0 0 466.972 466.972" style="enable-background:new 0 0 466.972 466.972" xml:space="preserve"><path d="M233.481 319.656c6.747 0 13.132-2.563 17.982-7.219a5.5 5.5 0 1 0-7.617-7.935 14.892 14.892 0 0 1-10.365 4.154 14.885 14.885 0 0 1-10.356-4.154 5.5 5.5 0 0 0-7.617 7.935c4.85 4.656 11.233 7.219 17.973 7.219z"/><circle cx="171.225" cy="253.435" r="10.831"/><circle cx="295.746" cy="253.435" r="10.831"/><path d="M398.586 68.387C354.485 24.287 295.852 0 233.486 0s-121 24.287-165.099 68.387S0 171.119 0 233.485s24.287 121 68.386 165.1 102.733 68.387 165.099 68.387c62.367 0 121-24.287 165.1-68.387 44.099-44.1 68.386-102.733 68.386-165.1s-24.287-120.999-68.385-165.098zm-55.719 162.421a147.064 147.064 0 0 0 1.411-20.19c0-19.637-3.847-38.69-11.435-56.633a5.5 5.5 0 0 0-10.131 4.283c7.011 16.58 10.565 34.193 10.565 52.35 0 2.868-.109 5.744-.292 8.616a49.611 49.611 0 0 0-6.322-4.635c.214-3.439.579-13.025-.854-25.471a5.497 5.497 0 0 0-6.093-4.835 5.5 5.5 0 0 0-4.835 6.093 148.003 148.003 0 0 1 .965 18.943 181.106 181.106 0 0 0-14.691-5.408c.457-12.839-.255-51.846-22.94-82.093a5.5 5.5 0 0 0-8.801 6.599c18.955 25.274 20.878 58.558 20.776 72.339-16.246-4.18-33.677-6.512-51.702-6.883v-49.394a5.5 5.5 0 0 0-11 0v49.404c-17.676.422-34.772 2.741-50.729 6.833-.114-13.785 1.795-46.978 20.785-72.298a5.5 5.5 0 1 0-8.8-6.599c-22.655 30.206-23.395 69.148-22.942 82.04a181.448 181.448 0 0 0-15.046 5.534c-.071-4.385.053-11.074.967-19.016a5.5 5.5 0 0 0-4.835-6.093 5.497 5.497 0 0 0-6.093 4.835c-1.452 12.607-1.058 22.277-.846 25.599a49.697 49.697 0 0 0-5.982 4.43 136.147 136.147 0 0 1-.287-8.539c0-18.155 3.555-35.769 10.566-52.35a5.5 5.5 0 0 0-2.924-7.207 5.499 5.499 0 0 0-7.208 2.924c-7.587 17.943-11.435 36.997-11.435 56.633 0 6.714.482 13.474 1.402 20.12-6.814 11.013-9.334 24.567-6.161 37.841a162.683 162.683 0 0 0 6.486 20.817 134.131 134.131 0 0 1-12.772-21.595 132.995 132.995 0 0 1-8.757-24.618 134.776 134.776 0 0 1-3.972-32.564c0-74.158 60.332-134.49 134.49-134.49s134.49 60.332 134.49 134.49c0 10.479-1.213 20.92-3.607 31.04a132.78 132.78 0 0 1-9.524 26.989 133.96 133.96 0 0 1-12.004 20.258 162.604 162.604 0 0 0 6.278-20.209c3.188-13.287.666-26.861-6.161-37.89zm-214.246 35.214c-4.303-18.002 4.811-36.678 21.669-44.409 23.956-10.984 52.694-16.791 83.107-16.791 30.505 0 59.313 5.839 83.312 16.887 16.844 7.753 25.938 26.436 21.623 44.421-6.57 27.396-20.471 52.014-39.142 69.322-19.067 17.676-41.788 27.019-65.707 27.019-23.931 0-46.662-9.354-65.735-27.054-18.677-17.33-32.573-41.976-39.127-69.395zm36.859 86.545c1.162-.581 2.33-1.153 3.508-1.704 19.236 14.826 41.326 22.608 64.495 22.608 23.14 0 45.204-7.762 64.423-22.547 1.184.555 2.357 1.129 3.525 1.714-19.288 18.856-43.17 29.164-67.948 29.164-24.812 0-48.715-10.333-68.003-29.235zm145.99 5.578c22.176 13.292 40.838 32.166 53.837 54.62-33.739 24.918-73.619 39.658-115.819 42.637v-63.889c22.841-3.677 44.324-15.186 61.982-33.368zm-156.028-.074c17.149 17.696 37.918 29.083 60.047 33.1v64.075c-41.48-3.299-80.654-17.969-113.87-42.515 12.99-22.484 31.649-41.375 53.823-54.66zm71.047 97.781v-63.303c2.322.162 4.654.253 6.995.253 1.673 0 3.341-.048 5.005-.131v63.24c-1.665.036-3.332.061-5.003.061a229.3 229.3 0 0 1-6.997-.12zm164.318-65.045a226.826 226.826 0 0 1-16.735 15.144c-15.855-26.802-39.282-48.735-67.024-62.799 5.72-5.348 11.01-11.329 15.828-17.815 17.694-13.813 32.143-31.758 41.799-51.936a143.682 143.682 0 0 0 10.312-29.218 145.943 145.943 0 0 0 3.901-33.565c0-80.224-65.267-145.49-145.49-145.49s-145.49 65.267-145.49 145.49c0 11.927 1.446 23.778 4.297 35.219a143.969 143.969 0 0 0 9.48 26.648c9.752 20.743 24.506 39.122 42.677 53.199 4.728 6.324 9.905 12.166 15.496 17.401-27.738 14.049-51.159 35.994-67.002 62.83a226.327 226.327 0 0 1-16.69-15.108C34.143 348.784 11 292.913 11 233.485s23.143-115.299 65.165-157.32C118.187 34.143 174.058 11 233.486 11s115.299 23.143 157.322 65.165c42.021 42.021 65.164 97.893 65.164 157.32s-23.143 115.3-65.165 157.322z"/></svg>