<svg xmlns="http://www.w3.org/2000/svg" viewBox="0 0 466.971 466.971" style="enable-background:new 0 0 466.971 466.971" xml:space="preserve"><path d="M286.253 269.049a10.775 10.775 0 0 0 2.771-6.483 19.96 19.96 0 0 0 12.159 4.127c2.354 0 4.72-.415 6.974-1.264a5.5 5.5 0 0 0-3.879-10.294 8.922 8.922 0 0 1-8.641-1.349 19.876 19.876 0 0 0-21.75-1.93 10.772 10.772 0 0 0-3.678 2.638c-4.019 4.43-3.686 11.28.744 15.299s11.281 3.687 15.3-.744zM158.814 265.429a19.78 19.78 0 0 0 6.974 1.264c4.358 0 8.678-1.43 12.199-4.155a10.77 10.77 0 0 0 2.773 6.511c4.019 4.43 10.869 4.764 15.299.745s4.764-10.869.744-15.299a10.77 10.77 0 0 0-3.92-2.736 19.867 19.867 0 0 0-21.55 2.028 8.926 8.926 0 0 1-8.642 1.349 5.498 5.498 0 1 0-3.877 10.293zM216.514 333.695c4.622 2.568 10.602 3.982 16.835 3.982 6.239 0 12.222-1.414 16.844-3.982a5.5 5.5 0 0 0-5.342-9.616c-2.972 1.651-7.164 2.598-11.502 2.598-4.332 0-8.521-.947-11.493-2.598a5.5 5.5 0 0 0-5.342 9.616z"/><path d="M398.585 68.386C354.485 24.287 295.852 0 233.485 0s-121 24.287-165.1 68.386C24.287 112.486 0 171.119 0 233.485s24.287 121 68.386 165.099c44.1 44.1 102.733 68.386 165.1 68.386s121-24.287 165.1-68.386c44.099-44.1 68.386-102.733 68.386-165.099s-24.288-120.999-68.387-165.099zM111.561 229.167a123.772 123.772 0 0 1-1.385-18.642c.021-32.298 12.763-63.05 35.313-86.033v8.996a5.5 5.5 0 0 0 11 0v-19.701c16.637-25.942 46.322-41.995 77.857-41.995 30.98 0 59.329 15.526 76.143 41.613v20.083a5.5 5.5 0 0 0 11 0v-9.024c22.457 22.932 35.129 53.7 35.129 86.152 0 6.218-.466 12.467-1.386 18.57a410.34 410.34 0 0 0-3.698 34.301h-20.883c.033-1.063.057-2.125.055-3.186-.016-26.392-10.786-51.471-29.749-69.794a104.284 104.284 0 0 0 7.798-7.476c4.76-5.082 7.381-11.739 7.381-18.743a5.5 5.5 0 0 0-11 0c0 4.202-1.566 8.188-4.41 11.225a93.33 93.33 0 0 1-11.38 10.304c-16.127 12.342-35.437 18.866-55.842 18.866-20.355 0-39.633-6.499-55.75-18.796a93.874 93.874 0 0 1-11.396-10.25c-2.917-3.095-4.523-7.123-4.523-11.341a5.5 5.5 0 0 0-11 0c0 7.035 2.67 13.742 7.519 18.886a103.927 103.927 0 0 0 7.6 7.253c-19.009 18.329-29.807 43.439-29.823 69.859a97.243 97.243 0 0 0 .055 3.193H115.26a410.882 410.882 0 0 0-3.699-34.32zM313.596 385.77c8.92-13.198 13.634-28.631 13.634-44.628 0-1.654-.059-3.424-.176-5.278-.889-13.428-.791-26.94.245-40.374h23.38a409.46 409.46 0 0 0 4.552 56.068 124.998 124.998 0 0 1 1.358 21.215c-.296 14.058 2.747 27.787 8.811 39.925a220.211 220.211 0 0 1-60.524 31.616 68.543 68.543 0 0 1 8.72-58.544zM174.718 197.281c17.28 12.052 37.508 18.403 58.786 18.403 21.247 0 41.433-6.33 58.685-18.337 17.523 16.343 27.502 39.05 27.516 62.969a86.025 86.025 0 0 1-.971 13.045c-2.172 14.365-3.247 28.913-3.269 43.447-20.791 29.035-50.614 45.662-82.053 45.662-31.451 0-61.258-16.625-82.044-45.667-.023-14.537-1.098-29.082-3.271-43.444a86.443 86.443 0 0 1-.969-13.051c.017-23.943 10.023-46.679 27.59-63.027zm154.893 77.729c.026-.173.043-.348.069-.521h21.264c-.13 3.333-.21 6.666-.258 10h-22.324c.369-3.167.773-6.329 1.249-9.479zm-179.005 66.131c0-1.423.052-2.96.152-4.552.059-.893.09-1.788.141-2.682a130.075 130.075 0 0 0 8.902 9.203 163.612 163.612 0 0 0-8.852 4.836 69.928 69.928 0 0 1-.343-6.805zm82.807 32.33c18.111 0 35.695-4.897 51.622-14.032-8.829 20.118-29.019 33.804-51.678 33.804-22.693 0-42.9-13.721-51.708-33.885 15.96 9.187 33.593 14.113 51.764 14.113zm82.523-39.562c.051.888.082 1.777.14 2.664.102 1.608.153 3.145.153 4.568 0 2.293-.123 4.571-.345 6.83a165.1 165.1 0 0 0-8.876-4.843 129.571 129.571 0 0 0 8.928-9.219zm-200.088-59.42h21.306c.025.172.042.347.068.519.477 3.151.881 6.314 1.25 9.481h-22.366a401.773 401.773 0 0 0-.258-10zm-5.641 98.366a123.486 123.486 0 0 1 1.355-21.279 409.735 409.735 0 0 0 4.552-56.087h23.423c1.036 13.435 1.135 26.951.245 40.391a84.071 84.071 0 0 0-.175 5.262c0 16 4.715 31.432 13.634 44.629a68.54 68.54 0 0 1 8.733 58.5 220.183 220.183 0 0 1-60.459-31.615c5.998-12.138 9.001-25.82 8.692-39.801zm62.27 74.679a79.538 79.538 0 0 0-10.124-67.924 68.3 68.3 0 0 1-9.263-20.107 151.976 151.976 0 0 1 14.495-7.969c6.808 30.604 34.287 52.709 65.772 52.709 31.486 0 58.984-22.12 65.783-52.731a152.673 152.673 0 0 1 14.6 8.01 68.332 68.332 0 0 1-9.258 20.088 79.541 79.541 0 0 0-10.113 67.96c-19.559 5.531-40 8.401-60.885 8.401-20.927 0-41.41-2.883-61.007-8.437zm218.33-56.728a226.303 226.303 0 0 1-16.529 14.978c-4.627-10.045-6.933-21.274-6.691-32.78a136.156 136.156 0 0 0-1.479-23.089 398.155 398.155 0 0 1 0-119.087 136.146 136.146 0 0 0 1.509-20.211c0-39.502-17.237-76.707-47.322-102.275-18.773-29.784-50.849-47.55-85.95-47.55-35.316 0-68.57 18.054-87.198 47.208l-1.994 1.684c-29.229 25.586-45.953 62.188-45.979 100.83a134.693 134.693 0 0 0 1.509 20.298 398.394 398.394 0 0 1 .001 119.118 134.577 134.577 0 0 0-1.477 23.169c.253 11.425-2.016 22.602-6.58 32.633a226.406 226.406 0 0 1-16.464-14.927C34.143 348.784 11 292.913 11 233.485S34.143 118.186 76.164 76.164C118.187 34.143 174.058 11 233.485 11s115.299 23.143 157.321 65.165c42.021 42.021 65.164 97.893 65.164 157.321.001 59.427-23.142 115.298-65.163 157.32z"/></svg>