<svg xmlns="http://www.w3.org/2000/svg" viewBox="0 0 466.971 466.971" style="enable-background:new 0 0 466.971 466.971" xml:space="preserve"><path d="M398.585 68.386C354.485 24.287 295.852 0 233.485 0s-121 24.287-165.1 68.386C24.287 112.486 0 171.119 0 233.485s24.287 121 68.386 165.099c44.1 44.1 102.733 68.386 165.1 68.386s121-24.287 165.1-68.386c44.099-44.1 68.386-102.733 68.386-165.099s-24.288-120.999-68.387-165.099zM124.19 228.093c0-7.154.482-14.095 1.393-20.688 8.982-10.572 22.345-16.805 36.375-16.805h23.797c18.955 0 36.813-9.422 47.729-24.622 10.916 15.2 28.772 24.622 47.729 24.622h23.797c14.027 0 27.387 6.229 36.374 16.804.912 6.591 1.395 13.532 1.395 20.688 0 74.096-49.031 134.377-109.299 134.377-60.262.002-109.29-60.28-109.29-134.376zm114.795 145.219c21.567-1.18 41.672-9.253 58.84-22.438 28.168 13.181 51.906 34.96 67.495 61.88-36.529 26.983-80.257 42.039-126.335 43.15v-82.592zm67.989-30.208c28.451-26.612 46.806-68.267 46.806-115.01 0-1.423-.04-2.828-.074-4.236l1.042 1.408a5.501 5.501 0 0 0 7.692 1.15 5.5 5.5 0 0 0 1.149-7.693l-11.33-15.312c-10.985-14.909-28.648-23.81-47.248-23.81h-23.797c-17.898 0-34.593-10.346-42.634-26.387a5.496 5.496 0 0 0-5.095-3.41 5.506 5.506 0 0 0-5.005 3.23c-8.008 16.143-24.761 26.566-42.725 26.566h-23.797c-18.6 0-36.263 8.901-47.241 23.801l-11.336 15.32a5.5 5.5 0 1 0 8.842 6.543l1.041-1.407c-.034 1.408-.074 2.813-.074 4.235 0 46.714 18.329 88.345 46.748 114.959a163.197 163.197 0 0 0-28.705 18.55c-27.192-12.206-45.248-39.583-45.248-69.127v-80.488c0-81.979 66.131-148.708 147.416-148.75h.078c39.334 0 76.349 15.33 104.232 43.17 27.905 27.862 43.273 64.872 43.273 104.21v81.858c0 30.355-17.604 57.216-45.121 69.321a163.73 163.73 0 0 0-28.889-18.691zm-137.896 7.723c17.182 13.216 37.312 21.306 58.907 22.486v82.591c-46.086-1.111-89.82-16.172-126.353-43.163 15.571-26.958 39.292-48.75 67.446-61.914zm221.729 39.979a226.485 226.485 0 0 1-16.722 15.133c-7.955-13.445-17.818-25.664-29.175-36.282 12.613-6.472 23.442-15.929 31.628-27.723 10.105-14.558 15.447-31.66 15.447-49.458v-81.858c0-42.28-16.515-82.054-46.502-111.995-29.962-29.916-69.732-46.386-112.004-46.386h-.084c-87.348.045-158.41 71.708-158.41 159.75v80.488c0 17.665 5.391 34.702 15.589 49.268a87.95 87.95 0 0 0 31.617 27.701c-11.422 10.662-21.337 22.949-29.323 36.481a226.458 226.458 0 0 1-16.704-15.119C34.143 348.785 11 292.914 11 233.485s23.143-115.299 65.164-157.32C118.187 34.143 174.058 11 233.485 11s115.299 23.143 157.321 65.165c42.021 42.021 65.164 97.893 65.164 157.321s-23.142 115.299-65.163 157.32z"/><path d="M260.478 308.084a5.5 5.5 0 0 0-7.776-.159c-5.179 4.971-12.006 7.709-19.223 7.709-7.208 0-14.03-2.738-19.209-7.709a5.5 5.5 0 1 0-7.617 7.935c7.237 6.947 16.765 10.773 26.826 10.773 10.07 0 19.603-3.826 26.84-10.773a5.5 5.5 0 0 0 .159-7.776zM192.836 238.363a19.874 19.874 0 0 0-21.123-5.198 8.911 8.911 0 0 1-8.608-1.542 5.5 5.5 0 1 0-7.023 8.466c5.278 4.38 12.55 5.718 19.043 3.528-.602 2.26-.49 4.727.503 7.043 2.355 5.499 8.722 8.047 14.221 5.692 5.499-2.355 8.047-8.722 5.692-14.22a10.775 10.775 0 0 0-2.705-3.769zM277.122 256.353c5.499 2.355 11.865-.193 14.22-5.692a10.773 10.773 0 0 0 .503-7.043c6.494 2.19 13.765.851 19.044-3.528a5.5 5.5 0 0 0-7.023-8.466 8.918 8.918 0 0 1-8.608 1.542 19.873 19.873 0 0 0-21.118 5.194 10.766 10.766 0 0 0-2.709 3.773c-2.357 5.498.192 11.865 5.691 14.22z"/></svg>