<svg xmlns="http://www.w3.org/2000/svg" viewBox="0 0 466.971 466.971" style="enable-background:new 0 0 466.971 466.971" xml:space="preserve"><path d="M398.585 68.386C354.486 24.287 295.852 0 233.486 0s-121 24.287-165.1 68.386C24.287 112.486 0 171.12 0 233.486s24.287 121 68.386 165.099c44.1 44.1 102.733 68.386 165.1 68.386s121-24.287 165.1-68.386c44.099-44.1 68.386-102.733 68.386-165.099s-24.288-121-68.387-165.1zM101.619 412.732c11.107-19.226 26.36-35.82 44.411-48.532 22.67 29.095 54.291 45.68 87.514 45.68 33.176 0 64.797-16.511 87.516-45.477 17.976 12.698 33.17 29.23 44.247 48.362-37.977 28.048-83.733 43.207-131.821 43.207-48.108-.001-93.881-15.171-131.867-43.24zm251.73-177.267c6.002 3.582 9.625 10.513 8.632 17.867a17.88 17.88 0 0 1-6.925 11.902 17.968 17.968 0 0 1-5.815 2.938c2.319-10.172 3.702-21.114 4.108-32.707zM309.296 99.98a51.573 51.573 0 0 1 17.775-3.16c28.424 0 51.548 23.125 51.548 51.548 0 13.259-4.934 25.619-13.769 35.069-7.119-34.474-27.503-64.153-55.554-83.457zm47.321 110.638c0 4.617-.273 9.23-.78 13.781a28.723 28.723 0 0 0-2.309-.906 5.5 5.5 0 0 0-4.382-4.926c-42.769-8.698-81.606-32.039-109.357-65.723l-1.3-1.578V109.49a5.5 5.5 0 0 0-11 0v42.767l-.483.587c-27.751 33.685-66.589 57.026-109.357 65.724a5.497 5.497 0 0 0-4.385 4.984c-.782.273-1.544.584-2.292.919a124.452 124.452 0 0 1-.795-13.852c0-67.944 55.276-123.221 123.221-123.221s123.219 55.275 123.219 123.22zM101.943 183.44c-8.835-9.455-13.768-21.816-13.768-35.072 0-28.424 23.117-51.548 51.531-51.548a51.642 51.642 0 0 1 17.789 3.162c-28.051 19.305-48.434 48.984-55.552 83.458zm10.787 52.614c.597 10.079 2.32 20.715 5.207 32.175-6.678-1.897-11.96-7.588-12.948-14.898-.941-6.977 2.282-13.56 7.741-17.277zm10.763-7.492c42.724-9.524 81.517-32.892 109.903-66.22 28.205 33.116 66.686 56.399 109.087 66.038-.022 16.231-1.956 31.172-5.754 44.408-15.405 53.642-56.659 89.683-102.655 89.683-46.514 0-88.116-36.041-103.521-89.682-4.765-16.603-7.009-30.672-7.06-44.227zm110.581 144.909c22.975 0 44.956-7.746 64.058-22.443a151.47 151.47 0 0 1 13.691 7.328c-20.571 25.826-48.808 40.523-78.28 40.523-29.51 0-57.744-14.766-78.269-40.71a150.457 150.457 0 0 1 13.943-7.414c18.948 14.501 41.313 22.716 64.857 22.716zm156.733 17.336a226.826 226.826 0 0 1-16.735 15.144c-15.811-26.727-39.157-48.616-66.803-62.687 17.566-16.452 30.897-38.236 38.809-63.42a28.783 28.783 0 0 0 15.646-5.861c6.159-4.693 10.122-11.504 11.158-19.178 1.165-8.626-1.615-16.886-6.942-22.973a135.013 135.013 0 0 0 .945-35.257c14.286-11.822 22.734-29.603 22.734-48.205 0-34.489-28.059-62.548-62.548-62.548a62.427 62.427 0 0 0-29.079 7.175c-19.175-10.572-41.193-16.598-64.594-16.598-23.402 0-45.42 6.026-64.595 16.599a62.51 62.51 0 0 0-29.095-7.176c-34.479 0-62.531 28.059-62.531 62.548 0 18.599 8.448 36.382 22.734 48.212a135.1 135.1 0 0 0-.733 14.038c0 7.176.578 14.364 1.707 21.381-5.231 6.07-7.948 14.259-6.794 22.805 1.889 13.987 13.516 24.309 27.115 25.063 8.026 25.477 21.649 47.102 38.836 63.125-27.818 14.045-51.307 36.028-67.185 62.922a226.544 226.544 0 0 1-16.691-15.108C34.143 348.785 11 292.914 11 233.486S34.143 118.187 76.164 76.165C118.187 34.143 174.058 11 233.486 11s115.299 23.143 157.321 65.165c42.021 42.022 65.164 97.893 65.164 157.321s-23.143 115.299-65.164 157.321z"/><path d="M252.19 321.456c-4.973 3.349-11.617 5.193-18.711 5.193-7.084 0-13.725-1.844-18.699-5.193a5.5 5.5 0 0 0-6.143 9.125c6.77 4.558 15.592 7.068 24.842 7.068 9.259 0 18.086-2.51 24.855-7.069a5.5 5.5 0 0 0 1.49-7.634 5.498 5.498 0 0 0-7.634-1.49zM286.871 264.028a10.778 10.778 0 0 0 3.537-6.253 5.484 5.484 0 0 0 7.702-.05 5.5 5.5 0 0 0 .012-7.778 19.865 19.865 0 0 0-21.054-4.565 10.771 10.771 0 0 0-4.434 2.321c-4.508 3.932-4.976 10.774-1.044 15.282 3.931 4.507 10.773 4.975 15.281 1.043zM172.366 257.868a5.47 5.47 0 0 0 3.081-.97 10.767 10.767 0 0 0 2.742 6.407c4.005 4.443 10.854 4.798 15.297.793 4.443-4.005 4.798-10.854.793-15.297a10.801 10.801 0 0 0-3.517-2.587 19.872 19.872 0 0 0-21.802 1.833 5.5 5.5 0 0 0 3.406 9.821z"/><path d="M160.248 270.574a45.26 45.26 0 0 0 6.285 7.228c6.378 5.91 14.446 8.862 22.454 8.862 8.067 0 16.072-2.998 22.218-8.988 4.762-4.639 7.576-10.272 8.366-16.743.178-1.459.217-2.917.145-4.362a21.584 21.584 0 0 1 13.579-4.773c4.995 0 9.731 1.685 13.578 4.772a25.52 25.52 0 0 0 .145 4.363c.79 6.469 3.604 12.102 8.364 16.742 6.147 5.991 14.151 8.988 22.22 8.988 8.007 0 16.077-2.953 22.454-8.861a45.315 45.315 0 0 0 6.285-7.228c8.82-12.578 19.292-22.801 31.121-30.384l1.32-.843a5.501 5.501 0 0 0-.961-9.776c-.502-.194-12.491-4.776-28.375-6.161-21.502-1.873-39.879 3.086-53.154 14.347a27.118 27.118 0 0 0-6.249 7.636c-5.015-2.996-10.76-4.596-16.749-4.596-5.99 0-11.734 1.6-16.75 4.596a27.114 27.114 0 0 0-6.248-7.636c-13.273-11.261-31.654-16.225-53.154-14.347-15.884 1.385-27.873 5.966-28.375 6.161a5.501 5.501 0 0 0-.961 9.776l1.318.842c11.832 7.584 22.302 17.808 31.124 30.385zm103.16-24.427c10.998-9.329 24.774-12.087 37.222-12.087 8.642 0 16.642 1.33 22.627 2.712-9.677 7.504-18.368 16.716-25.921 27.486a34.42 34.42 0 0 1-4.756 5.475c-8.504 7.879-21.472 7.908-29.52.064-2.962-2.887-4.638-6.223-5.122-10.197-.611-4.999 1.435-10.029 5.47-13.453zm-60.227 0c4.035 3.423 6.08 8.453 5.47 13.454-.484 3.975-2.16 7.31-5.123 10.197-8.048 7.843-21.014 7.815-29.52-.065a34.338 34.338 0 0 1-4.755-5.474c-7.553-10.77-16.245-19.982-25.922-27.486 14.606-3.376 41.217-6.431 59.85 9.374z"/></svg>