<?xml version="1.0" encoding="iso-8859-1"?>
<!-- Generator: Adobe Illustrator 19.0.0, SVG Export Plug-In . SVG Version: 6.00 Build 0)  -->
<svg version="1.1" id="Layer_1" xmlns="http://www.w3.org/2000/svg" xmlns:xlink="http://www.w3.org/1999/xlink" x="0px" y="0px"
	 viewBox="0 0 511.999 511.999" style="enable-background:new 0 0 511.999 511.999;" xml:space="preserve">
<g>
	<g>
		<path d="M335.236,194.304c-1.427-4.395-6.154-6.8-10.541-5.372c-8.465,2.75-17.4,2.752-25.836,0.004
			c-4.393-1.431-9.114,0.97-10.546,5.365c-1.43,4.393,0.972,9.114,5.365,10.544c5.912,1.925,11.995,2.887,18.082,2.887
			c6.088,0,12.181-0.963,18.105-2.888C334.259,203.417,336.665,198.698,335.236,194.304z"/>
	</g>
</g>
<g>
	<g>
		<path d="M272.732,255.444h-33.464c-4.62,0-8.366,3.746-8.366,8.366c0,4.62,3.746,8.366,8.366,8.366h33.464
			c4.621,0,8.366-3.746,8.366-8.366C281.098,259.19,277.354,255.444,272.732,255.444z"/>
	</g>
</g>
<g>
	<g>
		<circle cx="311.771" cy="247.074" r="16.732"/>
	</g>
</g>
<g>
	<g>
		<path d="M362.682,482.416c-4.181-21.128-14.479-40.384-29.778-55.685c-3.267-3.267-8.565-3.268-11.831,0
			c-3.268,3.267-3.268,8.563-0.001,11.831c12.948,12.948,21.661,29.236,25.196,47.101c0.789,3.984,4.284,6.744,8.199,6.744
			c0.538,0,1.085-0.052,1.633-0.161C360.632,491.349,363.579,486.948,362.682,482.416z"/>
	</g>
</g>
<g>
	<g>
		<path d="M190.929,426.731c-3.267-3.267-8.565-3.266-11.832,0c-15.3,15.301-25.596,34.556-29.777,55.685
			c-0.897,4.532,2.05,8.934,6.582,9.831c0.549,0.108,1.094,0.161,1.633,0.161c3.913,0,7.41-2.76,8.199-6.744
			c3.535-17.865,12.247-34.153,25.196-47.101C194.197,435.294,194.197,429.997,190.929,426.731z"/>
	</g>
</g>
<g>
	<g>
		<path d="M437.061,189.098c-1.896-37.866-17.357-73.198-44.012-100.193c-26.697-27.063-61.642-42.749-99.112-44.652
			c-2.056-13.459-9.175-25.499-20.223-33.839C260.74,0.623,244.376-2.45,228.81,1.986c-42.352,12.063-81.022,37.43-108.889,71.431
			c-27.81,33.928-43.281,73.775-45.014,115.685c-28.422,4-50.365,28.468-50.365,57.976c0,32.291,26.271,58.562,58.562,58.562
			c5.94,0,11.721-0.87,17.278-2.593c11.645,36.97,33.713,70.267,61.528,93.952c-21.036,18.546-35.941,42.486-43.235,69.556
			c-1.201,4.462,1.44,9.052,5.902,10.254c0.728,0.196,1.461,0.29,2.182,0.29c3.689,0,7.066-2.46,8.073-6.192
			c6.714-24.917,20.758-46.825,40.626-63.471c6.769,4.705,13.796,8.867,21.036,12.388c6.81,3.313,13.81,6.077,20.852,8.235
			l30.194,34.125v41.448c0,4.62,3.745,8.366,8.366,8.366s8.366-3.746,8.366-8.366v-41.448l30.15-34.075
			c14.655-4.457,28.833-11.421,42.14-20.652c19.602,16.456,33.984,38.867,40.608,63.447c1.005,3.732,4.384,6.192,8.071,6.192
			c0.721,0,1.453-0.094,2.182-0.29c4.462-1.202,7.103-5.794,5.901-10.254c-7.192-26.693-22.445-51.126-43.233-69.525
			c6.688-5.693,13.104-11.969,19.168-18.835c19.145-21.676,33.68-47.494,42.372-75.143c5.554,1.72,11.33,2.589,17.265,2.589
			c32.29,0,58.562-26.27,58.562-58.562C487.458,217.559,465.499,193.085,437.061,189.098z M233.396,18.078
			c10.474-2.983,21.493-0.91,30.239,5.692c8.638,6.52,13.734,16.383,14.147,27.228l-18.601,49.02c-1.64,4.32,0.534,9.15,4.853,10.79
			c0.977,0.371,1.98,0.547,2.967,0.547c3.374,0,6.554-2.057,7.823-5.4l17.089-45.034c33.72,1.423,65.22,15.401,89.229,39.739
			c23.557,23.86,37.301,55.04,39.168,88.494c-7.163,1.064-14.101,3.451-20.412,7.056l-0.31,0.169
			c-2.483,1.36-7.495,4.105-9.59,4.206c-0.116-0.185-0.28-0.486-0.467-0.947c-21.379-52.672-52.602-69.298-75.03-73.971
			c-23.888-4.977-49.494,1.753-65.232,17.149c-6.388,6.25-10.946,12.967-14.347,21.139c-0.034,0.081-0.066,0.163-0.097,0.245
			c-5.193,13.68-7.795,31.222-8.115,54.907c-5.037,2.396-14.404,6.276-26.19,8.51c-23.321,4.423-44.801,0.65-63.831-11.214
			c-3.506-2.185-6.965-5.148-10.575-9.054c-9.102-9.854-21.336-16.247-34.46-18.199C95.266,110.768,152.547,41.106,233.396,18.078z
			 M428.897,288.908c-4.447,0-8.765-0.698-12.909-2.05c3.007-13.365,4.543-26.715,4.543-39.779c0-4.614,3.752-8.366,8.366-8.366
			s8.366,3.752,8.366,8.366c0,4.62,3.745,8.366,8.366,8.366c4.621,0,8.366-3.746,8.366-8.366c0-13.839-11.259-25.098-25.098-25.098
			s-25.098,11.258-25.098,25.098c0,13.896-1.911,28.191-5.679,42.487c-0.003,0.013-0.004,0.027-0.009,0.04
			c-0.008,0.03-0.021,0.058-0.029,0.088c-15.701,59.398-60.285,108.888-110.941,123.146c-2.189,0.616-3.924,2.05-4.977,3.875
			l-26.258,29.677l-25.691-29.038c-0.996-2.125-2.869-3.824-5.305-4.509c-7.105-1.999-14.202-4.713-21.096-8.066
			c-42.087-20.474-76.529-64.575-89.886-115.092c-0.021-0.078-0.051-0.152-0.075-0.229c-3.749-14.26-5.652-28.518-5.652-42.379
			c0-13.839-11.259-25.098-25.098-25.098s-25.098,11.258-25.098,25.098c0,4.62,3.745,8.366,8.366,8.366s8.366-3.746,8.366-8.366
			c0-4.614,3.752-8.366,8.366-8.366s8.366,3.752,8.366,8.366c0,13.064,1.536,26.414,4.543,39.779
			c-4.144,1.352-8.462,2.05-12.909,2.05c-23.065,0-41.83-18.764-41.83-41.83c0-23.065,18.764-41.83,41.83-41.83
			c11.624,0,22.821,4.904,30.72,13.455c4.638,5.02,9.223,8.911,14.012,11.899c18.818,11.731,37.667,15.612,54.376,15.611
			c0.446,0,0.885-0.012,1.327-0.018c-0.016,0.294-0.045,0.586-0.045,0.885c0,9.24,7.491,16.732,16.732,16.732
			c9.24,0,16.732-7.491,16.732-16.732c0-2.086-0.399-4.075-1.096-5.916c13.697-4.078,22.555-9.225,23.453-9.759
			c2.537-1.508,4.091-4.241,4.091-7.191c0-24.125,2.229-41.274,7.013-53.95c2.502-5.97,5.856-10.895,10.55-15.486
			c9.72-9.508,28.992-17.131,50.119-12.73c18.443,3.843,44.334,18.045,62.939,63.882c2.677,6.597,6.998,9.32,10.154,10.444
			c8.315,2.962,16.704-1.63,23.444-5.32l0.375-0.205c0.049-0.027,0.097-0.054,0.145-0.08c6.299-3.611,13.476-5.519,20.752-5.519
			h0.001h0.001c23.065,0,41.83,18.764,41.83,41.83C470.727,270.145,451.962,288.908,428.897,288.908z"/>
	</g>
</g>
<g>
</g>
<g>
</g>
<g>
</g>
<g>
</g>
<g>
</g>
<g>
</g>
<g>
</g>
<g>
</g>
<g>
</g>
<g>
</g>
<g>
</g>
<g>
</g>
<g>
</g>
<g>
</g>
<g>
</g>
</svg>
