<svg xmlns="http://www.w3.org/2000/svg" viewBox="0 0 511.999 511.999" style="enable-background:new 0 0 511.999 511.999" xml:space="preserve"><path d="M335.236 194.304c-1.427-4.395-6.154-6.8-10.541-5.372-8.465 2.75-17.4 2.752-25.836.004a8.366 8.366 0 1 0-5.181 15.909 58.314 58.314 0 0 0 18.082 2.887 58.51 58.51 0 0 0 18.105-2.888 8.363 8.363 0 0 0 5.371-10.54zM272.732 255.444h-33.464a8.367 8.367 0 0 0 0 16.732h33.464a8.366 8.366 0 0 0 8.366-8.366 8.365 8.365 0 0 0-8.366-8.366z"/><circle cx="311.771" cy="247.074" r="16.732"/><path d="M362.682 482.416c-4.181-21.128-14.479-40.384-29.778-55.685a8.365 8.365 0 0 0-11.831 0 8.365 8.365 0 0 0-.001 11.831c12.948 12.948 21.661 29.236 25.196 47.101a8.37 8.37 0 0 0 9.832 6.583 8.365 8.365 0 0 0 6.582-9.83zM190.929 426.731a8.368 8.368 0 0 0-11.832 0c-15.3 15.301-25.596 34.556-29.777 55.685a8.366 8.366 0 1 0 16.414 3.248c3.535-17.865 12.247-34.153 25.196-47.101a8.366 8.366 0 0 0-.001-11.832z"/><path d="M437.061 189.098c-1.896-37.866-17.357-73.198-44.012-100.193-26.697-27.063-61.642-42.749-99.112-44.652-2.056-13.459-9.175-25.499-20.223-33.839C260.74.623 244.376-2.45 228.81 1.986c-42.352 12.063-81.022 37.43-108.889 71.431-27.81 33.928-43.281 73.775-45.014 115.685-28.422 4-50.365 28.468-50.365 57.976 0 32.291 26.271 58.562 58.562 58.562 5.94 0 11.721-.87 17.278-2.593 11.645 36.97 33.713 70.267 61.528 93.952-21.036 18.546-35.941 42.486-43.235 69.556a8.366 8.366 0 1 0 16.157 4.352c6.714-24.917 20.758-46.825 40.626-63.471 6.769 4.705 13.796 8.867 21.036 12.388a144.707 144.707 0 0 0 20.852 8.235l30.194 34.125v41.448a8.366 8.366 0 1 0 16.732 0v-41.448l30.15-34.075c14.655-4.457 28.833-11.421 42.14-20.652 19.602 16.456 33.984 38.867 40.608 63.447a8.37 8.37 0 0 0 8.071 6.192 8.365 8.365 0 0 0 8.083-10.544c-7.192-26.693-22.445-51.126-43.233-69.525a189.165 189.165 0 0 0 19.168-18.835c19.145-21.676 33.68-47.494 42.372-75.143 5.554 1.72 11.33 2.589 17.265 2.589 32.29 0 58.562-26.27 58.562-58.562 0-29.517-21.959-53.991-50.397-57.978zM233.396 18.078c10.474-2.983 21.493-.91 30.239 5.692 8.638 6.52 13.734 16.383 14.147 27.228l-18.601 49.02a8.366 8.366 0 0 0 4.853 10.79c.977.371 1.98.547 2.967.547a8.37 8.37 0 0 0 7.823-5.4l17.089-45.034c33.72 1.423 65.22 15.401 89.229 39.739 23.557 23.86 37.301 55.04 39.168 88.494a58.519 58.519 0 0 0-20.412 7.056l-.31.169c-2.483 1.36-7.495 4.105-9.59 4.206a6.126 6.126 0 0 1-.467-.947c-21.379-52.672-52.602-69.298-75.03-73.971-23.888-4.977-49.494 1.753-65.232 17.149-6.388 6.25-10.946 12.967-14.347 21.139a7.33 7.33 0 0 0-.097.245c-5.193 13.68-7.795 31.222-8.115 54.907-5.037 2.396-14.404 6.276-26.19 8.51-23.321 4.423-44.801.65-63.831-11.214-3.506-2.185-6.965-5.148-10.575-9.054-9.102-9.854-21.336-16.247-34.46-18.199 3.612-78.382 60.893-148.044 141.742-171.072zm195.501 270.83c-4.447 0-8.765-.698-12.909-2.05 3.007-13.365 4.543-26.715 4.543-39.779 0-4.614 3.752-8.366 8.366-8.366s8.366 3.752 8.366 8.366a8.366 8.366 0 1 0 16.732 0c0-13.839-11.259-25.098-25.098-25.098s-25.098 11.258-25.098 25.098c0 13.896-1.911 28.191-5.679 42.487-.003.013-.004.027-.009.04-.008.03-.021.058-.029.088-15.701 59.398-60.285 108.888-110.941 123.146a8.336 8.336 0 0 0-4.977 3.875l-26.258 29.677-25.691-29.038a8.339 8.339 0 0 0-5.305-4.509c-7.105-1.999-14.202-4.713-21.096-8.066-42.087-20.474-76.529-64.575-89.886-115.092-.021-.078-.051-.152-.075-.229-3.749-14.26-5.652-28.518-5.652-42.379 0-13.839-11.259-25.098-25.098-25.098s-25.098 11.258-25.098 25.098a8.366 8.366 0 1 0 16.732 0c0-4.614 3.752-8.366 8.366-8.366s8.366 3.752 8.366 8.366c0 13.064 1.536 26.414 4.543 39.779a41.442 41.442 0 0 1-12.909 2.05c-23.065 0-41.83-18.764-41.83-41.83 0-23.065 18.764-41.83 41.83-41.83 11.624 0 22.821 4.904 30.72 13.455 4.638 5.02 9.223 8.911 14.012 11.899 18.818 11.731 37.667 15.612 54.376 15.611.446 0 .885-.012 1.327-.018-.016.294-.045.586-.045.885 0 9.24 7.491 16.732 16.732 16.732 9.24 0 16.732-7.491 16.732-16.732 0-2.086-.399-4.075-1.096-5.916 13.697-4.078 22.555-9.225 23.453-9.759a8.366 8.366 0 0 0 4.091-7.191c0-24.125 2.229-41.274 7.013-53.95 2.502-5.97 5.856-10.895 10.55-15.486 9.72-9.508 28.992-17.131 50.119-12.73 18.443 3.843 44.334 18.045 62.939 63.882 2.677 6.597 6.998 9.32 10.154 10.444 8.315 2.962 16.704-1.63 23.444-5.32l.375-.205.145-.08a41.79 41.79 0 0 1 20.752-5.519h.002c23.065 0 41.83 18.764 41.83 41.83-.001 23.065-18.766 41.828-41.831 41.828z"/></svg>