<svg xmlns="http://www.w3.org/2000/svg" width="44.438" height="44.438" style="enable-background:new 0 0 44.438 44.438" xml:space="preserve"><path d="M43.984 10.046 30.505 3.641a.79.79 0 0 0-1.059 1.033l1.379 3.087-.017.002c-.645.007-1.381.137-2.174.259-.795.145-1.65.217-2.543.447-.885.234-1.816.485-2.783.744-.938.356-1.901.719-2.865 1.104-.928.489-1.893.916-2.785 1.47-.879.585-1.786 1.095-2.567 1.77-.396.317-.791.636-1.183.948-.358.343-.717.683-1.065 1.017a10.55 10.55 0 0 0-.979 1.021l-.891 1.014c-.521.704-1.047 1.333-1.443 1.981a21.36 21.36 0 0 0-1.063 1.757 23.604 23.604 0 0 0-.705 1.408c-.359.793-.51 1.267-.51 1.267s.239-.435.744-1.13a21.497 21.497 0 0 1 2.299-2.683c.492-.532 1.11-1.024 1.719-1.575l1.01-.768a9.324 9.324 0 0 1 1.078-.748c.375-.235.756-.477 1.141-.72l1.228-.629c.799-.457 1.703-.738 2.553-1.093.867-.319 1.779-.515 2.636-.772.889-.149 1.762-.299 2.604-.441.854-.052 1.678-.103 2.459-.147.143-.01.285-.013.428-.013.623 0 1.227.065 1.773.075.68.03 1.293.037 1.85.148l.066.01-1.479 3.186a.78.78 0 0 0 .713 1.118.79.79 0 0 0 .328-.07l13.575-6.24a.792.792 0 0 0 .007-1.432z"/><path d="M36.49 37.02a.242.242 0 0 1-.242.242H3.855a.24.24 0 0 1-.242-.242V12.692a.24.24 0 0 1 .242-.241h10.304l.011-.01c.639-.549 1.321-.981 1.983-1.401.234-.149.474-.303.707-.458.015-.009.027-.019.041-.025.652-.403 1.322-.736 1.969-1.059.304-.15.605-.303.904-.459.043-.021.086-.043.131-.062.121-.049.238-.092.359-.141H3.854A3.857 3.857 0 0 0 0 12.69v24.327a3.858 3.858 0 0 0 3.854 3.854h32.393a3.858 3.858 0 0 0 3.854-3.854V14.842l-3.612 1.66.001 20.518z"/></svg>